<svg xmlns="http://www.w3.org/2000/svg" width="160" height="21" viewBox="0 0 160 21" fill="none"><g clip-path="url(#clip0_323_6750)"><path d="M15.7713 13.7156C7.53706 20.8441 4.27728 10.599 0 5.41405C8.23424 -1.71678 11.494 8.5306 15.7713 13.7156Z" fill="#2A387D"/><path d="M15.7713 13.7156C7.53706 20.8441 4.27728 10.599 0 5.41405C8.23424 -1.71678 11.494 8.5306 15.7713 13.7156Z" fill="#503AF2"/><path d="M41.2747 5.59948C41.0581 5.45603 40.7966 5.4676 40.6883 5.62493L32.4634 17.6793C30.1811 14.4679 21.9516 2.89246 21.9516 2.89246C19.4856 -0.675269 14.9445 0.479267 12.1699 3.01277C12.1699 3.01277 23.2635 18.6187 23.2635 18.6164C25.7319 22.1841 30.2706 21.0295 33.0452 18.496L33.0429 18.4937L41.4726 6.13858C41.5809 5.98356 41.4914 5.74062 41.2747 5.59948Z" fill="#3866FF"/><path d="M66.3058 5.79102L60.043 18.7454H56.9481L50.9844 5.79102H54.5857L58.5521 15.0944L62.6574 5.79102H66.3058Z" fill="#00156A"/><path d="M72.2444 2.0732C72.2444 2.79508 72.0654 3.32491 71.7051 3.66271C71.3471 4.00051 70.7841 4.16941 70.0186 4.16941C69.2225 4.16941 68.6573 4.00745 68.3205 3.68585C67.9836 3.36425 67.8164 2.82515 67.8164 2.07552C67.8164 1.35364 67.9883 0.828432 68.3322 0.497573C68.6761 0.166714 69.239 0.00244141 70.0186 0.00244141C70.7983 0.00244141 71.3635 0.169028 71.7168 0.497573C72.0678 0.826118 72.2444 1.35133 72.2444 2.0732ZM71.6933 18.7457H68.2521V5.79132H71.6933V18.7457Z" fill="#00156A"/><path d="M88.8976 5.79102L82.6348 18.7454H79.5399L73.5762 5.79102H77.1775L81.1438 15.0944L85.2515 5.79102H88.8976Z" fill="#00156A"/><path d="M103.507 18.7457H100.777L100.433 15.9739C99.8982 16.9804 99.0974 17.7578 98.0352 18.3061C96.9729 18.8545 95.7222 19.1275 94.2855 19.1275C92.7263 19.1275 91.5298 18.8198 90.696 18.2043C89.8622 17.5889 89.4453 16.7097 89.4453 15.5667C89.4453 14.831 89.6008 14.1924 89.9164 13.651C90.2296 13.1096 90.6913 12.6746 91.3037 12.3437C91.8689 12.0291 92.5049 11.7908 93.2068 11.6334C93.911 11.4761 95.1099 11.3141 96.8081 11.1499C98.2142 11.0134 99.1445 10.8468 99.5944 10.6432C100.044 10.4396 100.27 10.1133 100.27 9.66216V9.63903C100.27 9.06754 100.007 8.6372 99.479 8.34336C98.9514 8.04952 98.16 7.90375 97.1048 7.90375C95.8659 7.90375 94.9403 8.0981 94.3303 8.48912C93.7179 8.88013 93.374 9.49558 93.2986 10.3378H89.8363C89.9894 8.75982 90.6724 7.54744 91.8901 6.69832C93.1055 5.84919 94.7683 5.42578 96.8787 5.42578C99.1728 5.42578 100.85 5.81217 101.912 6.58726C102.974 7.36003 103.507 8.58861 103.507 10.2707V18.7457ZM95.3642 16.6727C96.7256 16.6727 97.8868 16.2793 98.8501 15.4904C99.8134 14.7014 100.296 13.7898 100.296 12.7533V12.3021C100.051 12.4964 99.6957 12.6677 99.2293 12.8088C98.763 12.9522 98.1317 13.0679 97.338 13.1582C96.2828 13.2646 95.515 13.3687 95.0321 13.4728C94.5517 13.5769 94.163 13.7134 93.8733 13.8777C93.5836 14.042 93.3763 14.2271 93.2539 14.4307C93.1314 14.6343 93.0702 14.8772 93.0702 15.1618V15.185C93.0702 15.6801 93.2609 16.0526 93.6425 16.3002C94.0264 16.55 94.5988 16.6727 95.3642 16.6727Z" fill="#00156A"/><path d="M119.516 14.736C119.516 16.0872 118.934 17.1584 117.773 17.9474C116.61 18.7364 115.006 19.1297 112.957 19.1297C110.724 19.1297 108.997 18.7433 107.773 17.9705C106.548 17.1978 105.815 16.0294 105.57 14.4676H109.308C109.461 15.1733 109.836 15.6846 110.432 15.9993C111.028 16.3139 111.916 16.4713 113.093 16.4713C114.148 16.4713 114.923 16.344 115.423 16.0895C115.92 15.835 116.167 15.4278 116.167 14.8725C116.167 14.4375 115.922 14.1229 115.432 13.9262C114.942 13.7319 113.805 13.5653 112.014 13.4311C109.843 13.2668 108.319 12.8874 107.438 12.2927C106.56 11.7004 106.119 10.8235 106.119 9.669C106.119 8.34788 106.666 7.31134 107.758 6.55939C108.851 5.80975 110.37 5.43262 112.311 5.43262C114.344 5.43262 115.938 5.78893 117.093 6.50386C118.247 7.21648 118.977 8.29466 119.283 9.7361H115.75C115.613 9.12065 115.267 8.66948 114.718 8.3849C114.167 8.10031 113.357 7.95686 112.288 7.95686C111.324 7.95686 110.601 8.07949 110.121 8.32937C109.638 8.57693 109.398 8.94944 109.398 9.44457C109.398 9.89574 109.645 10.2173 110.144 10.414C110.641 10.6084 111.753 10.7749 113.482 10.9091C115.79 11.1035 117.373 11.4922 118.23 12.0706C119.088 12.6444 119.516 13.5329 119.516 14.736Z" fill="#00156A"/><path d="M129.013 19.1296C126.566 19.1296 124.712 18.5674 123.45 17.4406C122.19 16.3138 121.559 14.6549 121.559 12.4615V12.2579C121.559 10.1548 122.239 8.4912 123.601 7.26725C124.962 6.04331 126.78 5.43018 129.06 5.43018C131.369 5.43018 133.196 6.03868 134.541 7.25569C135.886 8.47269 136.56 10.1409 136.56 12.2579V12.4615C136.56 14.5647 135.898 16.2028 134.577 17.3735C133.25 18.5442 131.397 19.1296 129.013 19.1296ZM129.058 16.3115C130.389 16.3115 131.402 15.9806 132.096 15.3212C132.791 14.6595 133.14 13.6993 133.14 12.4361V12.2556C133.14 10.9345 132.791 9.92338 132.096 9.22464C131.402 8.52591 130.396 8.17654 129.079 8.17654C127.779 8.17654 126.773 8.53053 126.062 9.23621C125.351 9.94189 124.995 10.9484 124.995 12.2556V12.4361C124.995 13.697 125.344 14.6595 126.038 15.3212C126.738 15.983 127.744 16.3115 129.058 16.3115Z" fill="#00156A"/><path d="M147.477 5.79103V8.62994H143.831L143.808 18.7454H140.597V8.62994H137.752V5.79103H140.597V5.2288C140.597 3.44263 140.965 2.18629 141.699 1.46673C142.434 0.744854 143.702 0.38623 145.508 0.38623H147.503V3.06781H145.897C145.025 3.06781 144.462 3.21357 144.21 3.50741C143.958 3.80125 143.831 4.44215 143.831 5.43472V5.79566H147.477V5.79103Z" fill="#00156A"/><path d="M158.621 15.7723H159.997V18.7455H157.75C155.746 18.7455 154.375 18.3544 153.633 17.5747C152.891 16.795 152.521 15.298 152.521 13.0908V8.67392H149.492V5.94838C149.966 5.94838 150.319 5.94375 150.547 5.93681C150.776 5.92987 150.997 5.9183 151.212 5.90211C151.746 5.88591 152.109 5.77023 152.302 5.55274C152.493 5.33525 152.627 4.90953 152.703 4.2802C152.747 4.0257 152.783 3.70641 152.806 3.32233C152.83 2.93826 152.832 2.59814 152.818 2.29736H155.663V5.78874H159.997V8.67392H155.663V12.5262C155.663 13.9376 155.83 14.833 156.167 15.2078C156.504 15.5849 157.321 15.7723 158.621 15.7723Z" fill="#00156A"/></g><defs><clipPath id="clip0_323_6750"><rect width="160" height="20.8696" fill="white"/></clipPath></defs></svg>