<svg xmlns="http://www.w3.org/2000/svg" xmlns:xlink="http://www.w3.org/1999/xlink" xmlns:v="https://vecta.io/nano" width="543" height="528" fill="none"><style><![CDATA[.B{fill:#fff}.C{stroke-linejoin:round}.D{stroke:#263238}.E{stroke-width:1.557}.F{stroke-linecap:round}.G{opacity:.3}.H{fill-opacity:.7}.I{fill:#263238}.J{fill:#000}.K{fill:#4069f9}.L{fill:#757575}]]></style><g class="D E C"><g class="F"><path d="M351.271 222.314V1h13.693m-13.693 247.651v-5.866"/><path d="M400.182 1H541.49v268.287H351.271"/><path d="M382.867 1h12.416"/></g><path d="M534.334 8.144H358.425v253.998h175.909V8.144z"/><g class="F"><path d="M526.159 21.742v105.483H366.604v-6.889m0-16.125V15.634h159.555"/><path d="M366.604 115.058v-6.693m132.604 26.773h35.128m-47.62 0h4.975m-133.267 0h122.368"/><path d="M437.533 127.224v-3.64h14.716v2.061h-5.862v1.579m-87.66 102.913s2.45 1.85 4.164 13.04c0 0 3.006-17.869 6.523-18.139s2.856 11.611 2.856 11.611.601-5.851 3.397-5.58 0 12.033 0 12.033 3.367-9.235 6.554-9.025-2.105 16.726-2.105 16.726 8.177-5.926 11.484-3.008-1.834 10.198-1.834 10.198 11.724-2.542 13.528 4.347m.016-6.632s5.111-3.355 9.139-1.79c0 0-2.555-3.896 0-6.272s5.832 6.272 5.832 6.272.376-14.515 5.486-13.778 0 13.778 0 13.778 9.124-8.092 11.319-5.28-1.503 7.07-1.503 7.07a9.88 9.88 0 0 1 5.058-.092 9.89 9.89 0 0 1 4.441 2.423s6.118-6.242 12.912-7.145c0 0-4.509-13.13-2.33-15.778s6.178 11.462 6.178 11.462 1.744-9.175 7.515-9.897c0 0-4.764-2.587-3.351-6.513s7.981.932 7.981.932-2.706-6.903 1.578-8.799 6.013 5.776 6.013 5.776 1.202-8.032 6.223-7.52 3.397 9.686 3.397 9.686 4.734-7.34 7.275-6.603c5.065 1.504 3.532 13.116 3.532 13.116s7.065-4.919 8.898-2.647-7.365 8.738-7.365 8.738 7.02.768 11.394 4.874m21.403-14.88s-.812-7.37-8.177-7.761 2.029 16.169 2.029 16.169-6.088-5.039-8.267-3.489 6.238 10.092 6.238 10.092-4.044-3.745-8.297-2.587 2.42 13.026 2.42 13.026c-6.294-1.262-12.825-.493-18.654 2.196M283.209 461.242V526.7m0-86.878v14.019M7.841 527.092V405.109H283.21v26.773M47.957 418.447H24.058v97.451m242.933 10.8V418.447H61.831m193.706-25.974h-7.59m-10.899 0H1v12.544h289.048v-12.544h-29.671"/></g></g><path d="M44.324 324.725c11.581-9.927 6.973-20.502 2.988-26.201-3.991-5.687.783-17.1-10.063-26.93s-7.225-5.881-9.119-16.618c-1.893-10.731-22.304-8.209-19.707 6.514 2.596 14.729.987 9.76 1.25 16.956.359 9.953 1.218 12.448 4.817 17.471 4.098 5.714 1.051 17.975 4.56 22.493 9.741 12.523 23.709 7.651 25.275 6.315z" fill="#c9c9c9"/><g class="D"><path d="M17.025 261.3c18.05 33.933 27.405 61.491 28.054 82.68"/><path d="M42.397 323.731c1.459 6.691 2.506 14.498 2.683 20.25m-4.781-70.516l-9.548 15.593-20.115-3.408m35.848 9.991l-9.548 15.588-20.115-3.408"/></g><path d="M56.328 332.427c-4.517-2.607-4.914-10.377-.885-17.358s10.959-10.527 15.475-7.919 2.736 9.336-1.298 16.311-8.781 11.574-13.292 8.966z" fill="#bfbfbf"/><g class="D"><path d="M68.949 309.364l-20.517 34.759m17.122-19.354l-7.413 3.091-.735-8.956"/><g class="E"><path d="M76.141 344.042H22.495a1.31 1.31 0 0 0-1.308 1.309v4.076c0 .171.034.34.1.498s.163.301.284.422.266.215.424.279.328.096.499.094h1.503l4.78 41.754h41.005l4.78-41.754h1.578c.17.002.339-.03.497-.094a1.28 1.28 0 0 0 .422-.28c.12-.121.215-.264.28-.422a1.28 1.28 0 0 0 .094-.497v-4.076c.002-.172-.03-.341-.094-.5a1.29 1.29 0 0 0-.7-.709 1.29 1.29 0 0 0-.498-.1h0z" stroke-miterlimit="10"/><path d="M27.502 350.72h31.205m5.875 0h4.69" class="C F"/></g></g><path d="M406.493 177.626l-6.012 32.7-49.031 29.811 6.779 12.454s56.682-17.297 58.065-21.343 14.445-46.898 14.445-46.898l-24.246-6.724z" class="I"/><path d="M427.976 122.337l-3.277 39.649-1.729 20.801c-9.454 4.603-18.699-2.316-19.27-2.767 2.571-7.551 5.562-50.162 24.276-57.683z" class="C D E K"/><path d="M424.637 161.986l-1.729 20.802c-9.455 4.603-18.699-2.316-19.27-2.767.406.18 5.381 2.286 8.613 0-1.131-1.222-2.138-2.552-3.006-3.971-.196-.782 3.006-.993 3.006-.993s-2.104-16.861 3.502-24.066c2.195-2.737 5.622 2.979 8.884 10.995z" class="I"/><g class="B"><path d="M461.93 489.504l1.503 4.422c-2.278 3.763-4.83 7.353-7.636 10.74 0 0-1.503-.482-3.968 1.699-1.519 1.516-2.456 3.518-2.646 5.656 0 0-11.484 13.777-26.049 13.973s-10.176-7.145-10.176-7.145l48.972-29.345z" class="C D E"/><use xlink:href="#B"/><path opacity=".4" d="M448.235 454.444s-19.54-7.205-23.358 7.204c0 0 3.487 15.869 1.398 24.547s-12.611 25.254-13.258 28.398c-1.277 6.167-.315 6.588-.315 6.588s7.65 4.422 17.932-.316 28.078-25.134 30.859-29.33-8.718-20.742-8.718-20.742l-4.54-16.349z"/></g><g class="C D E"><use xlink:href="#B"/><path d="M438.239 474.825c1.7 9.707-.027 19.704-4.886 28.277" class="F"/><path d="M433.354 506.892a13.19 13.19 0 0 1-3.302 4.815c-1.446 1.337-3.173 2.334-5.055 2.916a23.24 23.24 0 0 1-12.025 0l4.69-9.506a29.95 29.95 0 0 0 15.692 1.775z" class="B"/><path d="M436.12 501.129s-10.221.617-15.557-1.504m17.451-4.136s-9.559 1.504-14.895-1.504m16.519-4.766s-8.372 1.218-13.843-1.369m14.774-5.731s-9.319 2.918-13.723 0" class="F"/><path d="M441.968 464.581l1.623 10.243s-12.326 8.122-20.472-2.03V462.1s3.066 7.189 18.849 2.481z" class="B"/></g><path d="M431.267 234.647c-12.491 39.603-51.256 103.121-47.333 119.381 2.149 8.874 14.941 59.156 24.951 81.221 3.803 8.438 12.025 14.079 12.025 14.079l5.937 12.739c14.475 6.303 19.661-6.512 19.661-6.512l-2.916-14.44c7.756-14.108 4.509-14.108-5.576-87.238-1.188-8.618 18.788-35.256 18.788-35.256l10.252 67.023 1.668 54.9 5.321 16.966 1.203 16.891h23.794l2.585-17.508s11.048-10.423 11.048-22.456-2.375-73.325 0-91.179-5.561-101.091-5.561-101.091l-75.847-7.52z" class="I"/><path d="M269.509 199.361l33.068 2.978a2.84 2.84 0 0 1 1.924 1.008c.482.578.715 1.324.648 2.074l-2.124 23.615-38.72-3.487 2.124-23.615c.067-.75.429-1.442 1.007-1.925s1.323-.716 2.073-.648z" class="B"/><path d="M269.509 199.363l33.068 2.981c.75.067 1.442.43 1.924 1.008s.715 1.324.648 2.074l-2.122 23.615-38.72-3.49 2.122-23.615a2.84 2.84 0 0 1 3.08-2.573z" class="G H J"/><path d="M303.098 201.932l-9.48-.815-1.629 18.972 9.48.815 1.629-18.972z" class="B G H"/><path d="M269.509 199.361l33.068 2.978a2.84 2.84 0 0 1 1.924 1.008c.482.578.715 1.324.648 2.074l-2.124 23.615-38.72-3.487 2.124-23.615c.067-.75.429-1.442 1.007-1.925s1.323-.716 2.073-.648h0z" stroke-width="1.563" class="C D"/><use xlink:href="#C" class="B"/><path d="M326.587 201.451l32.947 2.835a2.83 2.83 0 0 1 2.573 3.06l-2.018 23.527-38.577-3.319 2.018-23.528a2.83 2.83 0 0 1 .995-1.921c.574-.483 1.315-.718 2.062-.654z" class="G H J"/><path d="M359.356 206.775l-5.721-.491-1.629 18.972 5.721.492 1.629-18.973z" class="B G H"/><g class="C D E"><use xlink:href="#C"/><path d="M314.621 200.415l32.947 2.833c.747.064 1.437.422 1.92.996a2.83 2.83 0 0 1 .654 2.063l-2.02 23.528-38.578-3.317 2.02-23.527a2.83 2.83 0 0 1 .995-1.922c.574-.483 1.315-.718 2.062-.654zm56.893 4.901l32.947 2.832c.747.064 1.437.423 1.92.996a2.83 2.83 0 0 1 .653 2.063l-2.018 23.513-38.578-3.316 2.02-23.528a2.83 2.83 0 0 1 1-1.911c.572-.48 1.312-.713 2.056-.649z" class="B"/></g><path d="M348.026 205.794l-9.48-.815-1.629 18.973 9.48.814 1.629-18.972zm56.272 4.832l-9.48-.814-1.629 18.972 9.48.815 1.629-18.973z" class="B G H"/><path d="M422.247 230.725l-9.304 108.19-174.195-15.041 9.304-108.175a6.84 6.84 0 0 1 .74-2.565c.413-.798.979-1.506 1.666-2.085a6.83 6.83 0 0 1 2.338-1.286 6.8 6.8 0 0 1 2.651-.291L416.01 223.28c.9.073 1.776.325 2.578.74a6.83 6.83 0 0 1 2.095 1.678c.58.693 1.017 1.494 1.286 2.357a6.83 6.83 0 0 1 .278 2.67z" class="B"/><path d="M422.247 230.721l-9.304 108.19-174.195-15.041 9.304-108.175a6.84 6.84 0 0 1 .74-2.565 6.83 6.83 0 0 1 1.666-2.084c.687-.579 1.481-1.016 2.338-1.287a6.84 6.84 0 0 1 2.651-.291l160.563 13.808c.9.073 1.776.325 2.578.74a6.83 6.83 0 0 1 2.095 1.678c.58.693 1.017 1.494 1.286 2.357s.363 1.77.278 2.67z" class="G H J"/><g class="C D E"><path d="M422.247 230.725l-9.304 108.19-174.195-15.041 9.304-108.175a6.84 6.84 0 0 1 .74-2.565c.413-.798.979-1.506 1.666-2.085a6.83 6.83 0 0 1 2.338-1.286 6.8 6.8 0 0 1 2.651-.291L416.01 223.28c.9.073 1.776.325 2.578.74a6.83 6.83 0 0 1 2.095 1.678c.58.693 1.017 1.494 1.286 2.357a6.83 6.83 0 0 1 .278 2.67h0z"/><path d="M422.246 230.722l-9.304 108.191-129.268-11.131 9.319-108.175a6.84 6.84 0 0 1 .741-2.565c.412-.797.979-1.506 1.666-2.084a6.82 6.82 0 0 1 2.337-1.287 6.84 6.84 0 0 1 2.652-.291l115.634 9.942c.895.076 1.766.328 2.563.741s1.505.979 2.083 1.667 1.015 1.482 1.286 2.339a6.85 6.85 0 0 1 .291 2.653z" class="B"/></g><path d="M413.169 233.823l-110.493-9.506c-.737-.065-1.419-.417-1.899-.979a2.83 2.83 0 0 1-.672-2.029 2.83 2.83 0 0 1 3.006-2.573l110.494 9.506a2.83 2.83 0 0 1 2.57 3.009 2.83 2.83 0 0 1-.978 1.9c-.562.481-1.29.722-2.028.672z" class="B G H"/><use xlink:href="#D" class="B"/><path opacity=".4" d="M499.822 475.018s-8.327-5.941-25.553-4.752c0 0-1.262 20.681-3.607 26.697s-14.7 16.44-17 18.23-2.3 8.032-2.3 8.032H503.7a166.95 166.95 0 0 0-4.163-26.562l.285-21.645z" class="B"/><g class="C D E"><use xlink:href="#D"/><path d="M489.014 477.696s-1.233 19.042-4.194 24.066c-1.581 2.76-3.533 5.291-5.802 7.52" class="F"/><path d="M477.577 511.913s-2.63 3.279-5.546 3.715-18.323-.436-18.323-.436l6.283-5.445s12.776-2.151 17.586 2.166z" class="B"/><path d="M483.017 507.446s-11.153-6.408-19.104-1.505m21.795-2.841s-7.787-6.092-16.971-2.753m20.278-3.879s-8.388-6.528-17.226-2.377m18.368-5.913s-10.176-5.475-17.572-1.323" class="F"/><path d="M503.687 523.226v3.865h-6.013s-5.156-3.008-10.056 0H459.39a20.46 20.46 0 0 1-8.628-1.94l.586-1.925h52.339zm-7.502-49.428l-1.338 8.438s-15.707-5.099-24.38-1.79v-10.378s16.128-5.655 25.718 3.73z" class="B"/></g><use xlink:href="#E" class="K"/><path opacity=".2" d="M504.046 181.462l-15.031 67.188s-21.72 6.017-41.966 10.845c-7.463-2.377-14.602-5.671-21.254-9.807 0 0 .09-2.106.15-5.55 18.188-9.31 44.732-22.998 44.522-23.644-.346-1.008 0-36.099 0-36.099s24.05-5.58 26.605-33.767c1.127 3.85 2.18 8.077 3.352 12.74 1.278 5.099 2.48 11.265 3.622 18.094z" class="J"/><g class="C D E"><use xlink:href="#E"/><path d="M447.515 84.539s-11.755 16.846 3.878 29.992c0 0-18.969 21.298-25.207 18.365-2.631-1.233 0-8.919 0-8.919l-11.003-20.366 32.332-19.072z" class="B"/></g><use xlink:href="#F" class="B"/><g class="C D E F"><use xlink:href="#F"/><path d="M411.529 83.228a10.87 10.87 0 0 1 4.983-.683 10.88 10.88 0 0 1 4.757 1.631M400.227 85.2a2.83 2.83 0 0 1 1.411-1.383c.621-.276 1.321-.319 1.971-.121"/></g><path d="M405.847 88.541s-4.629 8.438-4.644 9.641 5.697 1.609 5.697 1.609" class="B"/><path d="M405.847 88.541s-4.629 8.438-4.644 9.641 5.697 1.609 5.697 1.609" class="C D E F"/><path d="M415.799 90.255c0 .918-.406 1.67-.977 1.7s-1.052-.722-1.083-1.639.406-1.67.978-1.685 1.052.737 1.082 1.624z" class="I"/><path d="M409.261 105.926s8.883-1.67 10.522-4.798" class="C D E F"/><path d="M400.167 72.205l6.914-2.016s9.695-4.512 11.754-3.881 6.238 7.054 6.103 10.724c0 0 6.524 5.746 7.35 14.078l1.984-.902s-.105-7.521 4.164-7.325 6.193 5.31 5.907 6.919-4.96 8.288-4.96 8.288 10.702-1.594 11.048-22.562-22.622-24.381-33.79-23.524a145.72 145.72 0 0 1-17.015.632l.631 6.016-4.509 1.188 3.397 4.166-3.728 1.7 4.75 6.498z" class="I"/><g class="C E F"><path d="M438.885 300.828s27.206 7.205 34.572 27.48m-22.109-16.574s-14.701 24.502-37.202 37.227m16.533 100.562s8.358-1.88 10.642-5.128m35.894 8.241s8.177-4.241 16.324 0m10.145-114.07s-13.723 35.572-20.668 38.866m-39.426-94.578c.376 3.865 16.535 21.779 29.867 28.878m-16.082-43.995c1.946 4.796 2.351 10.079 1.158 15.116-1.297 4.347-1.297 8.979 0 13.326" stroke="#fff"/><path d="M427.974 193.768s25.298 32.759 52.489 43.513m-26.306-96.472s-.09 22.276 15.963 32.323" class="D"/></g><use xlink:href="#G" class="B"/><use xlink:href="#G" class="C D E F"/><use xlink:href="#H" class="B"/><g class="C D E F"><use xlink:href="#H"/><path d="M378.372 265.572c1.396-.075 2.786-.236 4.163-.481l2.375-.692m-2.195 5.249a14.31 14.31 0 0 0 5.155-1.775m-.045 3.971a8.75 8.75 0 0 0 3.758-1.399m-6.298-12.394s-1.082 2.482 0 3.866 2.39 1.504 2.586 3.008 2.78 1.504 3.712 2.482 1.639 2.858 4.615 3.008"/></g><use xlink:href="#I" class="K"/><g class="C D E F"><use xlink:href="#I"/><path d="M489.016 162.946s-10.522 14.484-18.894 14.68"/></g><path d="M112.938 527.091s-2.571-9.822.436-13.462c5.381-6.527-.662-12.032 4.749-14.274l2.27 2.633c.436-2.663-.827-10.8 9.214-11.853 12.145-1.278 12.371 7.521 13.032 10.529l-.21-4.076c5.185 0 2.495 5.174 10.341 13.627a22.41 22.41 0 0 1 4.6 7.877c.978 2.914 1.346 5.997 1.082 9.059l-45.514-.06zm92.576 0c-4.885-2.181-.406-20.621-.406-20.621s-6.568-4.407 0-9.025c2.541 2.155 5.621 3.573 8.908 4.103s6.658.152 9.746-1.094c0 0 1.277-12.334 9.018-10.755 0 0 1.985 7.822 6.509 12.289 12.25 12.033 28.078 13.537 30.723 19.312.797 1.745-.165 5.731-.165 5.731l-64.333.06z" class="I"/><use xlink:href="#J" fill="#bfbfbf"/><path opacity=".2" d="M105.196 272.716c40.194 3.159 74.991-10.002 90.097-16.876l-4.63-10.077-6.012-12.74-75.156-2.737c-3.186 3.384-4.314 20.576-4.299 42.43zm54.067 34.774c18.292 48.657 30.062 69.956 31.956 74.919 1.097 2.888 3.788 42.25 5.892 75.281l5.095-67.986c.451-12.394-8.492-29.375-9.83-33.767s1.684-9.145 1.684-9.145l-16.084-20.305c.541-6.889-7.981-36.956-7.981-36.956-5.066 4.798-9.575 15.011-10.732 17.959z" class="J"/><g class="C D E"><use xlink:href="#J"/><g class="F"><path d="M158.918 306.605s9.184-17.734 17.015-22.682m3.459-5.746s-27.897 8.498-37.578 10.138"/><path d="M165.111 249.688c1.203 23.238 9.395 27.194 1.504 32.263 0 0 .225 10.875-3.713 17.763m-46.674-58.915s3.292 35.723-7.696 42.446m.003-30.924s-.827 23.78 0 42.942c0 0 2.75 80.996 5.501 91.164s-4.239 25.57-3.638 69.52m24.47 34.397c-2.602-.566-5.319-.204-7.681 1.023m24.215 8.62a42.18 42.18 0 0 0-11.814-8.108m7.304-179.665c-6.163 6.919-15.933 19.96-25.944 21.058m35.37-32.308l-5.832 7.069m-2.946 73.881s-14.009 19.087-21.69 20.185m38.164-98.939s24.951 69.534 33.624 76.393l1.263 68.993c.285 17.854 4.389 41.589 4.389 41.589m26.634-.512s-9.605 3.324-14.28 5.445a12.92 12.92 0 0 0-6.313 6.783"/><path d="M205.619 354.481c-13.393-8.408-31.054-18.922-38.179-33.737m49.858 40.669l-7.515-4.362m-34.691-97.963c-7.2-.105-15.031-1.052-21.239-5.129"/><path d="M186.529 258.412l-6.208.572"/></g></g><path d="M199.892 98.736c-5.501-8.333-33.534-10.453-51.526-10.453s-39.833-3.008-49.693 17.297c-7.515 15.507 9.8 97.511 9.8 97.511l-4.239 35.406c32.588 10.228 88.413 7.972 88.413 7.972l-7.515-32.007s20.262-107.408 14.76-115.726z" fill="#4a42ea"/><g class="B"><path d="M137.678 67.692s2.42 19.298-4.915 23.464c0 0 3.668 14.154 16.534 15.041s18.549-12.935 18.549-12.935l-30.168-25.57z" class="C D E"/><path d="M205.866 18.145l32.928-3.039c.747-.069 1.49.162 2.066.641a2.83 2.83 0 0 1 1.008 1.915l2.167 23.515-38.496 3.553-2.168-23.515a2.83 2.83 0 0 1 .621-2.044c.467-.574 1.139-.942 1.874-1.026z"/></g><path d="M205.866 18.146l32.929-3.035c.746-.069 1.489.162 2.066.641a2.83 2.83 0 0 1 1.008 1.915l2.171 23.514-38.497 3.548-2.171-23.514a2.83 2.83 0 0 1 .621-2.044c.466-.574 1.139-.942 1.873-1.025z" class="G H J"/><path d="M239.753 17.483l-9.474.875 1.748 18.962 9.474-.875-1.748-18.961z" class="B G H"/><path d="M205.866 18.145l32.928-3.039c.747-.069 1.49.162 2.066.641a2.83 2.83 0 0 1 1.008 1.915l2.167 23.515-38.496 3.553-2.168-23.515a2.83 2.83 0 0 1 .621-2.044c.467-.574 1.139-.942 1.874-1.026h0z" class="C D E"/><path d="M262.8 12.859l32.928-3.039c.746-.069 1.49.162 2.066.641a2.83 2.83 0 0 1 1.008 1.915l2.167 23.515-38.556 3.559-2.168-23.515a2.83 2.83 0 0 1 .641-2.067c.479-.577 1.167-.94 1.914-1.008z" class="B"/><path d="M262.8 12.857l32.929-3.035c.746-.069 1.489.162 2.066.641a2.83 2.83 0 0 1 1.008 1.915l2.171 23.514-38.557 3.553-2.171-23.514c-.069-.747.161-1.49.64-2.067s1.168-.939 1.914-1.008z" class="G H J"/><path d="M296.008 12.304l-5.718.528 1.748 18.962 5.717-.528-1.747-18.961z" class="B G H"/><g class="C D E"><path d="M262.8 12.859l32.928-3.039c.746-.069 1.49.162 2.066.641a2.83 2.83 0 0 1 1.008 1.915l2.167 23.515-38.556 3.559-2.168-23.515a2.83 2.83 0 0 1 .641-2.067c.479-.577 1.167-.94 1.914-1.008h0z"/><path d="M250.835 13.953l32.929-3.039c.746-.069 1.489.162 2.065.641a2.83 2.83 0 0 1 1.008 1.915l2.168 23.515-38.617 3.564-2.167-23.515a2.83 2.83 0 0 1 .119-1.112 2.82 2.82 0 0 1 .541-.979 2.84 2.84 0 0 1 .877-.693 2.83 2.83 0 0 1 1.077-.298zm56.878-5.251l32.928-3.039c.747-.069 1.49.162 2.066.641a2.83 2.83 0 0 1 1.008 1.915l2.167 23.515-38.556 3.559-2.168-23.515a2.83 2.83 0 0 1 .641-2.067c.479-.577 1.167-.939 1.914-1.008z" class="B"/></g><path d="M284.667 13.343l-9.474.875 1.747 18.961 9.475-.875-1.748-18.961zm56.254-5.209l-9.474.874 1.748 18.961 9.474-.874-1.748-18.961z" class="B G H"/><path d="M362.153 24.707l9.981 108.115-174.135 16.094-9.921-108.145a6.85 6.85 0 0 1 1.548-5.003 6.84 6.84 0 0 1 4.63-2.443L354.728 18.51a6.82 6.82 0 0 1 2.654.279c.858.267 1.655.701 2.345 1.276a6.83 6.83 0 0 1 1.675 2.079c.417.797.672 1.667.751 2.563z" class="B"/><path d="M362.153 24.707l9.981 108.115-174.135 16.094-9.921-108.145a6.85 6.85 0 0 1 1.548-5.003 6.84 6.84 0 0 1 4.63-2.443L354.728 18.51c.894-.083 1.797.012 2.654.279s1.655.701 2.345 1.276a6.82 6.82 0 0 1 1.675 2.079c.417.797.672 1.667.751 2.563z" class="G H J"/><g class="C D E"><path d="M362.153 24.707l9.981 108.115-174.135 16.094-9.921-108.145a6.85 6.85 0 0 1 1.548-5.003 6.84 6.84 0 0 1 4.63-2.443L354.728 18.51a6.82 6.82 0 0 1 2.654.279c.858.267 1.655.701 2.345 1.276a6.83 6.83 0 0 1 1.675 2.079c.417.797.672 1.667.751 2.563h0z"/><path d="M362.153 24.707l9.981 108.115-129.268 11.927-9.965-108.115c-.167-1.807.389-3.607 1.548-5.003s2.824-2.275 4.63-2.443L354.653 18.51c.9-.093 1.81-.006 2.677.256s1.672.694 2.37 1.271a6.84 6.84 0 0 1 1.696 2.089c.421.802.678 1.679.757 2.582z" class="B"/></g><path d="M353.781 29.352L243.348 39.549c-.736.05-1.461-.189-2.023-.667s-.915-1.156-.983-1.89a2.81 2.81 0 0 1 2.54-3.008l110.433-10.198c.736-.05 1.462.189 2.023.667a2.83 2.83 0 0 1 .984 1.89c.046.733-.192 1.455-.666 2.016a2.84 2.84 0 0 1-1.875.993z" class="B G H"/><path d="M159.731 29.427s-25.478-5.114-28.334 11.296 6.479 23.389 6.479 23.389l21.855-34.685z" class="I"/><use xlink:href="#K" class="B"/><g class="C D E F"><use xlink:href="#K"/><path d="M163.262 68.355s-5.066-3.67-9.936-.662m19.495.001s3.833-3.52 6.328-3.008"/></g><path d="M156.107 73.98c0 .933.466 1.7 1.052 1.7s1.068-.767 1.068-1.7-.481-1.685-1.068-1.685-1.052.752-1.052 1.685zm16.716.752c.589 0 1.067-.754 1.067-1.685s-.478-1.685-1.067-1.685-1.068.754-1.068 1.685.478 1.685 1.068 1.685z" class="I"/><g class="D E C"><path d="M170.672 71.242c-1.864 2.437.752 11.717 0 12.379s-5.532-1.218-5.532-1.218-1.112-1.414 1.218-2.166m.076 8.047s-6.418 0-8.132-2.346" class="F"/><path d="M151.071 53.522l-.497 7.761s-5.501 2.843-6.884 5.731c-.823 1.891-1.124 3.969-.872 6.016 0 0-3.336-5.836-5.14-5.355-.647.165-.647 2.617-.647 2.617s-7.515-16.786-.721-25.66 14.761 8.889 14.761 8.889z" class="L"/></g><use xlink:href="#L" class="B"/><use xlink:href="#L" class="C D E F"/><path d="M133.574 52.547c-.42-.572-2.284-15.041 7.261-21.539s25.673-5.806 35.939 3.189 7.35 24.592 0 29.917v-6.513s-3.382 6.528-13.528 7.069l3.096-4.783s-4.99 3.008-13.783 2.753c0 0 4.133-3.294 3.532-6.227.015 0-13.949 7.867-22.517-3.865z" class="I"/><g class="B"><path d="M135.364 104.709c-7.035.843-17.045 10.033-10.522 26.352 4.164 10.349 38.375 4.197 38.375 4.197 12.686-5.235 31.219-24.066 44.822-32.805 0 0-2.871-18.049-6.177-15.492-15.377 11.777-28.018 12.589-49.468 22.907.045-.06-12.611-5.685-17.03-5.159z" class="C D E"/><path d="M151.071 124.743c-.21 6.738 2.556 7.926 7.215 9.521l-7.215-9.521z"/></g><path d="M151.071 124.743c-.21 6.738 2.556 7.926 7.215 9.521" class="C D E F"/><use xlink:href="#M" class="B"/><g class="C D E F"><use xlink:href="#M"/><path d="M211.016 74.732a2.71 2.71 0 0 1 2.014 1.986c.496 1.775 1.954 1.88 2.841 3.865s.631 5.054 1.503 6.107 0 5.49 0 5.49"/></g><path d="M136.837 103.43c-3.682-4.692-11.949-2.572-11.949-2.572m-4.51-8.649s8.508 1.248 11.018 8.333m3.966 36.519s-8.297 6.423-20.923-2.797m10.449 4.739s-4.209 5.821-14.46 5.746m67.189 67.488s-21.705 17.313-43.756 15.041m-14.91-53.081s33.685 24.728 58.621 26.307" stroke="#fff" class="C E F"/><path d="M119.836 357.246c5.795-3.217 12.607-4.068 19.014-2.377 10.988 2.768 39.532 43.619 43.5 47.605s11.394 6.016 18.233 13.221c10.823 11.296 26.56 21.283 28.153 21.283s2.871-.993 4.855-1.384 17.346-1.79 17.346-1.79 5.156 1.144 0 3.355-4.764 4.181-4.764 4.181-1.038 1.67 1.037 3.264 3.291.722 6.253 4.918-4.179 1.82-4.179 1.82 1.578 4.513-1.593 4.061-.391 4.407-5.547 3.746-16.188-7.626-18.954-14.921c0 0-45.003-21.524-51.737-27.074s-35.083-35.316-37.022-35.707" class="I"/><path d="M237.574 397.558h33.068c.75 0 1.468.298 1.998.828s.828 1.249.828 1.999V424h-38.72v-23.615c0-.75.298-1.469.828-1.999s1.248-.828 1.998-.828z" class="B"/><path d="M237.574 397.557h33.069c.749 0 1.468.298 1.998.828s.827 1.249.827 1.999v23.615h-38.72v-23.615c0-.75.298-1.469.828-1.999s1.249-.828 1.998-.828z" class="G H J"/><path d="M271.321 400.053h-9.515v19.042h9.515v-19.042z" class="B G H"/><path d="M237.574 397.558h33.068c.75 0 1.468.298 1.998.828s.828 1.249.828 1.999V424h-38.72v-23.615c0-.75.298-1.469.828-1.999s1.248-.828 1.998-.828h0z" class="C D E"/><path d="M294.694 397.558h33.068c.75 0 1.469.298 1.999.828a2.83 2.83 0 0 1 .827 1.999V424h-38.72v-23.615a2.83 2.83 0 0 1 .215-1.082c.142-.343.35-.655.613-.917a2.82 2.82 0 0 1 .916-.613 2.83 2.83 0 0 1 1.082-.215z" class="B"/><path d="M294.694 397.557h33.069c.749 0 1.468.298 1.998.828s.827 1.249.827 1.999v23.615h-38.72v-23.615a2.83 2.83 0 0 1 .828-1.999c.262-.263.574-.471.917-.613s.71-.215 1.081-.215z" class="G H J"/><path d="M327.806 400.053h-5.742v19.042h5.742v-19.042z" class="B G H"/><g class="C D E"><path d="M294.694 397.558h33.068c.75 0 1.469.298 1.999.828a2.83 2.83 0 0 1 .827 1.999V424h-38.72v-23.615a2.83 2.83 0 0 1 .215-1.082c.142-.343.35-.655.613-.917a2.82 2.82 0 0 1 .916-.613 2.83 2.83 0 0 1 1.082-.215h0z"/><path d="M282.668 397.558h33.069c.749 0 1.468.298 1.998.828s.828 1.249.828 1.999V424h-38.72v-23.615a2.83 2.83 0 0 1 .215-1.082c.142-.343.35-.655.612-.917a2.83 2.83 0 0 1 .917-.613c.343-.142.71-.215 1.081-.215zm57.118 0h33.069c.749 0 1.468.298 1.998.828s.828 1.249.828 1.999V424h-38.72v-23.615c0-.75.297-1.469.827-1.999s1.249-.828 1.998-.828z" class="B"/></g><path d="M316.413 400.053h-9.514v19.042h9.514v-19.042zm56.487 0h-9.515v19.042h9.515v-19.042z" class="B G H"/><path d="M392.532 418.491v108.581H217.706V418.491c0-1.815.72-3.556 2.003-4.839a6.84 6.84 0 0 1 4.836-2.005h161.148a6.84 6.84 0 0 1 4.836 2.005c1.283 1.283 2.003 3.024 2.003 4.839z" class="B"/><path d="M392.531 418.491v108.581H217.705V418.491c0-1.815.72-3.556 2.003-4.839a6.84 6.84 0 0 1 4.836-2.005h161.148a6.84 6.84 0 0 1 4.836 2.005c1.283 1.283 2.003 3.024 2.003 4.839z" class="G H J"/><g class="C D E"><path d="M392.532 418.491v108.581H217.706V418.491c0-1.815.72-3.556 2.003-4.839a6.84 6.84 0 0 1 4.836-2.005h161.148a6.84 6.84 0 0 1 4.836 2.005c1.283 1.283 2.003 3.024 2.003 4.839h0z"/><path d="M392.531 418.491v108.581H262.797V418.491c0-1.815.721-3.556 2.003-4.839a6.84 6.84 0 0 1 4.836-2.005h116.056a6.84 6.84 0 0 1 4.836 2.005c1.282 1.283 2.003 3.024 2.003 4.839z" class="B"/></g><path d="M383.752 422.359H272.853c-.75 0-1.469-.298-1.999-.828a2.83 2.83 0 0 1-.827-2c-.008-.376.059-.75.197-1.1s.346-.669.609-.938.577-.483.924-.629.719-.221 1.096-.22h110.899a2.82 2.82 0 0 1 1.998.828c.53.53.828 1.249.828 1.999a2.82 2.82 0 0 1-.198 1.101c-.138.35-.345.669-.608.938s-.578.482-.925.628a2.82 2.82 0 0 1-1.095.221z" class="B G H"/><path d="M178.458 527.074c-9.019 0-21.69-5.806-36.285-11.943-15.137-6.377-32.377-13.115-49.874-14.123-6.524-.376-2.57 26.066-2.57 26.066H75.45s-14.099-18.831-15.737-35.692c0 0 11.514-7.115 14.279-7.521.954-.1 1.912-.145 2.871-.135 3.096 0 7.23.135 7.23.135-.661-.391-11.198-6.738-17.015-13.191-4.795-5.324-6.989-13.732-7.155-18.756a92.04 92.04 0 0 1 1.097-9.927l75.035 1.248s.812.572 2.255 1.64c8.703 6.347 40.508 29.992 56.411 47.815 5.141 5.761 8.613 10.905 9.124 14.665 2.39 17.342-11.784 19.719-25.387 19.719z" class="C D E L"/><path d="M194.736 492.659l-36.495 8.348a53.83 53.83 0 0 0-16.098 14.124c-15.137-6.378-32.377-13.116-49.874-14.124-6.523-.376-2.57 26.066-2.57 26.066H75.42s-14.069-18.831-15.707-35.692c0 0 13.287 18.952 16.534 28.578 0 0 5.156-17.809 13.528-24.953-3.781-4.262-8.078-8.036-12.791-11.236 3.096 0 7.23.135 7.23.135-.661-.391-11.198-6.738-17.015-13.19-4.795-5.325-6.734-13.748-7.155-18.757-.211-2.466.09-9.927.09-9.927s55.961 7.987 78.297 2.888c8.598 6.317 40.403 29.917 56.306 47.74z" class="I"/><path d="M136.069 491.383s29.731 14.905 37.668 20.741 10.296 4.257 10.296 4.257M67.094 489.802s7.14 10.904 7.516 14.168" class="C D E F"/><path d="M186.679 280.493s15.828-6.889 14.325 22.411 3.863 30.804 3.863 30.804-39.832 16.365-49.948 2.376-.511-52.267 31.76-55.591z" class="I"/><g class="C D E"><path d="M184.471 333.708s-16.383 7.731-17.872 14.875-22.005-3.61-22.005-3.61l14.866-21.388 25.011 10.123z" class="B"/><path d="M77.044 412.131c-37.578 47.891-7.08 70.994 35.519 67.174l-8.538 13.537 21.434 3.715s16.429-10.74 38.826-22.216c38.119-19.553 53.525-18.38 49.602-37.948s-50.639-32.263-97.476-11.642c-.045-.015-25.478-30.248-39.367-12.62z" class="L"/><path d="M90.15 516.382s9.785-27.074 13.874-28.578 19.54 4.362 21.434 8.723c0 0 5.216-8.001 7.351-4.602s-.947 9.025 0 13.326 11.513 10.318 15.737 11.116 6.629 3.173 6.629 5.55v5.159H90.15a13.62 13.62 0 0 1 0-10.694z" class="B"/><path d="M132.81 501.008s-8.613 4.257-11.754 3.009 1.608 7.144 2.795 7.941 9.019-2.782 9.019-2.782m-34.588-12.635s11.694.226 15.256 4.512M90.15 516.379s18.638 4.362 20.217 4.362c2.563-.509 5.077-1.238 7.515-2.181l8.508 4.167c3.397 1.594 25.553 0 25.553 0m-39.38-43.393c17.797-1.925 52.368-23.87 64.393-31.496s15.031-5.625 15.031-5.625" class="F"/><path d="M60.028 441.958l2.841-21.584 6.854-5.174c11.108-26.969 61.432-77.341 75.155-77.176 20.608.241 24.245 21.885 26.786 45.575s-29.567 20.125-29.567 20.125v5.941l-18.262 9.461 11.062-.346s-31.82 30.954-74.869 23.178zm89.197-145.644c4.313-13.537 24.049-17.147 31.144-14.936 5.824 2.276 10.596 6.633 13.393 12.229 1.803 3.895-1.969 10.784.721 14.8 3.848 5.761 3.517 17.914 2.135 25.57-.752 4.061-17.632 6.467-31.43-3.009-14.821-10.258-20.142-21.629-15.963-34.654z" class="B"/></g><path d="M169.17 277.333s17.376-2.827 17.496 1.64c.767 29.676-17.015 35.903-17.015 35.903s-7.26-5.791-8.883-1.82 2.555 14.951 7.696 15.176c-1.185 1.842-1.832 3.977-1.869 6.167s.537 4.346 1.658 6.227c0 0-29.431 4.918-31.866-8.724 1.138-4.742 1.952-9.556 2.435-14.409 1.909-19.117-2.555-31.977 30.348-40.16z" class="I"/><use xlink:href="#N" class="B"/><g class="C D E F"><use xlink:href="#N"/><path d="M193.955 323.585a13.31 13.31 0 0 1-7.921.196"/></g><path d="M184.32 289.367s11.559-3.354 9.44 15.417c0 0 4.81-6.543 4.795-13.898 0-12.74-17.03-10.183-17.03-10.183l2.224 9.025" class="I"/><path d="M194.828 298.555c-.438-.291-.93-.491-1.446-.587s-1.048-.085-1.56.03m-4.779.349s-6.208.361-8.898 4.512" class="C D E F"/><path d="M185.554 308.227c.09.993-.331 1.85-.948 1.911s-1.188-.707-1.293-1.7.331-1.85.947-1.91 1.203.707 1.294 1.699z" class="I"/><path d="M113.538 483.846s13.829 1.504 16.835 7.52" class="C D E F"/><use xlink:href="#O" class="B"/><use xlink:href="#O" class="C D E F"/><use xlink:href="#P" class="B"/><g class="C D E F"><use xlink:href="#P"/><path d="M161.322 379.491s-8.041 4.422-11.002 4.422m-1.773-26.608c.676 1.188.451 14.199 14.565 18.245m-90.005 40.068s30.062 5.159 40.433-3.971m10.282 7.478s-7.516-1.324-10.282 2.542-17.826 7.52-17.826 7.52m-32.319 18.651s-4.344 18.741 14.189 27.074m-4.477-25.779s.105 9.235 3.006 14.289l9.214 3.008 10.311-5.746s-2.195-11.807-2.39-14.199"/></g><g fill="#141451"><path d="M311.666 482.214c-.245 0-.443-.357-.592-1.072l-.288-1.872-.176-2.48-.016-.704c0-.362.027-.613.08-.752.064-.138.165-.208.304-.208.117 0 .208.027.272.08a.51.51 0 0 1 .192.224l-.016.64c0 .683.032 1.328.096 1.936l.336 2.448.176 1.104c.021.15-.005.299-.08.448-.075.139-.171.208-.288.208zm-.4-8.8c-.235 0-.411-.09-.528-.272-.107-.181-.16-.405-.16-.672 0-.117.005-.202.016-.256-.011-.17.085-.256.288-.256.149 0 .299.038.448.112.16.064.208.112.144.144.107.278.16.496.16.656 0 .139-.032.251-.096.336-.064.075-.155.144-.272.208zm4.939 8.768a1.88 1.88 0 0 1-1.312-.512c-.363-.341-.64-.784-.832-1.328-.181-.544-.272-1.109-.272-1.696 0-1.024.213-1.888.64-2.592.437-.704 1.099-1.056 1.984-1.056.533 0 .997.096 1.392.288.405.182.933.491 1.584.928l.416.288-.24-1.216-.208-.944-.4-1.856c-.075-.416-.112-.784-.112-1.104 0-.565.16-.848.48-.848.117.256.256.806.416 1.648l.608 3.424.672 3.76c.192.971.352 1.579.48 1.824 0 .246-.181.368-.544.368-.277 0-.469-.16-.576-.48-.096-.32-.155-.88-.176-1.68h-.128c-.448.811-1.029 1.478-1.744 2s-1.424.784-2.128.784zm.208-.784c.437 0 .907-.181 1.408-.544a5.34 5.34 0 0 0 1.296-1.344c.352-.533.528-1.013.528-1.44v-.48c-1.099-1.152-2.112-1.728-3.04-1.728-.651 0-1.152.24-1.504.72-.352.47-.528 1.088-.528 1.856l.016.336c.064.811.245 1.451.544 1.92a1.43 1.43 0 0 0 1.28.704zm9.816.8c-.682 0-1.312-.133-1.888-.4a3.35 3.35 0 0 1-1.376-1.136c-.341-.49-.512-1.056-.512-1.696 0-.714.134-1.381.4-2 .267-.629.656-1.13 1.168-1.504.523-.384 1.131-.576 1.824-.576.726 0 1.275.235 1.648.704.374.459.55 1.04.528 1.744 0 .63-.25 1.11-.752 1.44-.49.331-1.12.496-1.888.496-.117 0-.293-.01-.528-.032-.384-.042-.656-.101-.816-.176s-.24-.224-.24-.448c0-.074.022-.128.064-.16.043-.042.128-.064.256-.064.139 0 .384.032.736.096a5.02 5.02 0 0 0 .912.096c.982 0 1.472-.426 1.472-1.28 0-.512-.096-.917-.288-1.216-.181-.298-.506-.448-.976-.448-.512 0-.97.139-1.376.416a2.74 2.74 0 0 0-.944 1.056c-.213.438-.32.902-.32 1.392 0 .843.235 1.536.704 2.08.47.534 1.195.8 2.176.8.118 0 .315-.01.592-.032.118-.01.262-.042.432-.096l.368-.112c.459-.16.795-.24 1.008-.24.16 0 .283.043.368.128-.266.406-.666.704-1.2.896-.522.182-1.04.272-1.552.272zm7.508 0c-1.109 0-2.074-.192-2.896-.576-.81-.394-1.216-1.082-1.216-2.064 0-.352.107-.693.32-1.024s.528-.597.944-.8c.416-.213.923-.32 1.52-.32.459 0 .848.022 1.168.064s.688.16 1.104.352.848.496 1.296.912c-.17-.736-.426-1.381-.768-1.936s-.725-.981-1.152-1.28c-.416-.309-.826-.464-1.232-.464-.192 0-.373.038-.544.112-.16.064-.357.16-.592.288-.266.171-.464.256-.592.256-.053 0-.101-.016-.144-.048-.032-.042-.048-.09-.048-.144a1.11 1.11 0 0 1 .56-.992c.384-.234.848-.341 1.392-.32.747.043 1.43.363 2.048.96.619.587 1.104 1.318 1.456 2.192.363.875.544 1.734.544 2.576a7.32 7.32 0 0 1-.032.592l-.512-.032c-.405-.821-.928-1.402-1.568-1.744-.629-.352-1.264-.528-1.904-.528-.821 0-1.408.123-1.76.368s-.528.603-.528 1.072c0 .491.246.886.736 1.184s1.12.448 1.888.448a6.46 6.46 0 0 0 1.024-.064c.256-.053.523-.122.8-.208.224-.074.422-.128.592-.16a3.67 3.67 0 0 1 .656-.048c.299 0 .486.022.56.064.086.043.128.139.128.288 0 .107-.218.24-.656.4a12.88 12.88 0 0 1-1.472.432c-.544.128-.917.192-1.12.192zm-73.022-393.4a.94.94 0 0 1 .006-.29c.025-.077.091-.121.197-.13.095-.009.204.003.324.035a3.75 3.75 0 0 1 .38.11 6.2 6.2 0 0 0 .823.214c.25.041.555.046.916.013 1.318-.12 2.277-.523 2.879-1.21.612-.688.872-1.536.781-2.545-.082-.903-.409-1.671-.981-2.305-.572-.644-1.27-1.127-2.091-1.449a6.58 6.58 0 0 0-2.438-.485l1.52 6.658c.017.181.004.332-.039.453-.032.121-.133.189-.303.204-.04.025-.146-.254-.317-.839l-.717-2.586-.814-2.946c-.187-.647-.322-1.015-.405-1.104-.882.08-1.6.194-2.154.341-.556.136-.977.276-1.263.42s-.404.213-.351.209c-.055-.016-.095-.045-.12-.085-.026-.051-.049-.124-.068-.219l-.067-.203c-.023-.255.187-.478.63-.668s.912-.335 1.407-.433l1.012-.172c1.137-.103 2.343.023 3.617.378 1.274.345 2.371.925 3.292 1.741a4.49 4.49 0 0 1 1.546 3.057c.083.914-.074 1.715-.472 2.405a4.34 4.34 0 0 1-1.669 1.614 5.71 5.71 0 0 1-2.313.708c-.68.062-1.301.011-1.862-.152s-.856-.409-.886-.739zm12.936-.212a4.44 4.44 0 0 1-1.917-.228c-.597-.213-1.088-.549-1.473-1.007s-.605-1.005-.663-1.643c-.065-.712.008-1.388.217-2.028.209-.651.551-1.185 1.027-1.604.486-.43 1.074-.676 1.765-.739.722-.066 1.29.118 1.705.552.413.423.641.986.683 1.689.057.627-.149 1.127-.618 1.502-.459.374-1.071.595-1.836.665-.116.011-.293.016-.528.016-.387-.008-.663-.041-.829-.101s-.259-.201-.279-.424c-.007-.074.009-.129.049-.165.038-.046.121-.075.249-.087.138-.013.385-.003.742.029.345.033.651.037.917.013.977-.089 1.427-.558 1.35-1.408-.047-.51-.179-.905-.397-1.185-.208-.281-.545-.4-1.013-.358-.51.046-.954.226-1.332.539a2.73 2.73 0 0 0-.845 1.137 3.14 3.14 0 0 0-.193 1.415c.077.839.373 1.508.89 2.008.515.489 1.262.689 2.239.6l.587-.085c.116-.021.256-.066.421-.135l.357-.145c.442-.201.769-.311.982-.33.159-.014.285.017.378.094-.229.428-.6.762-1.114 1.001a4.7 4.7 0 0 1-1.521.411zm6.124-.541c-.308.028-.753-.392-1.336-1.26l-2.023-3.351-.552-.946c-.01-.106.045-.213.164-.32.118-.118.304-.183.56-.196.075.111.316.523.723 1.236l1.215 2.058 1.198 1.691.438-1.903.811-2.564.189-.579c.052-.133.168-.208.349-.225a.59.59 0 0 1 .343.065.31.31 0 0 1 .168.258c.01.106-.033.223-.129.349-.068.081-.154.309-.259.682l-.323 1.218-.807 2.789c-.24.664-.483.997-.729.998zm7.647-.711a4.44 4.44 0 0 1-1.916-.227 3.35 3.35 0 0 1-1.473-1.007c-.385-.458-.606-1.005-.664-1.643-.064-.712.008-1.388.218-2.028.208-.651.551-1.185 1.027-1.604.486-.43 1.074-.676 1.764-.739.723-.066 1.291.118 1.705.552.413.423.641.986.684 1.689.057.627-.15 1.127-.619 1.502-.459.374-1.07.595-1.835.665a6.22 6.22 0 0 1-.529.016c-.386-.008-.662-.041-.829-.101s-.259-.201-.279-.424c-.007-.074.01-.129.049-.165.039-.046.122-.075.249-.087.138-.013.386-.003.742.029.346.033.651.037.917.013.977-.089 1.427-.558 1.35-1.408-.046-.51-.179-.905-.397-1.185-.207-.281-.545-.4-1.012-.358a2.38 2.38 0 0 0-1.333.539 2.73 2.73 0 0 0-.845 1.137c-.173.455-.237.927-.192 1.415.076.839.372 1.508.889 2.008.516.489 1.262.689 2.239.6a8.79 8.79 0 0 0 .587-.085 2.13 2.13 0 0 0 .422-.135l.356-.145c.442-.201.77-.311.982-.33.159-.014.285.017.378.094-.229.428-.6.761-1.114 1.001a4.7 4.7 0 0 1-1.521.411zm4.248-.499c-.339-1.137-.644-2.491-.915-4.062l-.595-4.605-.132-1.98c-.012-.138.088-.217.3-.236.17-.015.28.017.33.099.061.08.1.211.116.391l.497 4.405.611 3.897.294 1.821c.026.169-.057.262-.248.279-.064.006-.149.003-.258-.009zm5.11-.336c-.626.057-1.207-.029-1.742-.259-.526-.241-.954-.599-1.286-1.072-.323-.485-.514-1.051-.573-1.699-.096-1.062.22-1.889.948-2.48.739-.592 1.676-.94 2.813-1.043a2.88 2.88 0 0 1 2.684 1.251c.319.453.508.993.565 1.619.062.68-.059 1.291-.364 1.833-.305.531-.732.961-1.28 1.289-.539.317-1.127.504-1.765.562zm-.257-.892c.988-.09 1.716-.381 2.186-.874s.665-1.169.586-2.029a2.13 2.13 0 0 0-.743-1.459c-.431-.389-1.003-.551-1.715-.487-.478.043-.953.178-1.425.403s-.851.533-1.137.923-.406.84-.36 1.35c.039.425.181.814.428 1.166a2.52 2.52 0 0 0 .94.798 2.41 2.41 0 0 0 1.24.209zm7.632 5.925c-.213.019-.519-.526-.92-1.635l-1.126-3.721-.572-2.583c-.097-1.073.193-1.886.871-2.441.677-.565 1.584-.899 2.721-1.002.605-.055 1.19.02 1.755.226a3.16 3.16 0 0 1 1.404.949c.371.427.584.943.639 1.549.068.754-.149 1.31-.652 1.666-.493.355-1.137.569-1.934.642-.829.075-1.548.001-2.157-.222-.6-.235-.922-.596-.966-1.085l.001-.161c.067-.092.143-.141.228-.149.074-.007.157.018.247.074a3.41 3.41 0 0 1 .32.164 5.71 5.71 0 0 0 1.026.501c.343.119.759.156 1.247.111.669-.061 1.132-.221 1.387-.48.264-.27.373-.666.326-1.186a1.53 1.53 0 0 0-.476-.985c-.282-.274-.632-.473-1.05-.595a3.37 3.37 0 0 0-1.264-.126c-.988.09-1.713.37-2.173.84-.462.46-.622 1.176-.48 2.148l.826 4.134c.314 1.107.768 2.029 1.36 2.768l.019.03c.001.021-.023.045-.074.071l-.089.088c-.109.213-.257.35-.444.41zm16.614-7.214c-.159.015-.259-.019-.298-.101-.041-.093-.07-.235-.087-.426a1.91 1.91 0 0 0-.007-.256 1.28 1.28 0 0 1-.006-.24 11.94 11.94 0 0 0-.036-1.459c-.092-1.009-.333-1.78-.724-2.312-.392-.543-.955-.781-1.688-.714-.404.037-.798.174-1.183.413-.375.238-.677.517-.904.837-.218.32-.315.602-.293.846a9.23 9.23 0 0 0 .39 1.105c.015.052.072.213.172.482.11.269.175.514.195.737l.044.301c.015.17-.062.263-.232.278-.212.019-.4-.103-.563-.367-.153-.265-.336-.682-.548-1.252l-.591-1.376a2.94 2.94 0 0 0-.692-.901c-.279-.242-.615-.346-1.008-.31-.542.049-.95.274-1.224.674-.264.399-.371.869-.322 1.411.033.361.108.836.226 1.425l.184 1.14c.017.191.009.337-.025.436s-.13.156-.29.171c-.212.019-.367-.036-.465-.167-.098-.141-.161-.36-.188-.658l-.288-2.111-.138-.807a11.32 11.32 0 0 1-.137-1.337l-.032-.527a.31.31 0 0 1 .214-.116c.117-.011.22.055.307.197.098.13.16.339.186.626.134-.291.345-.562.633-.813a1.64 1.64 0 0 1 .941-.423c.585-.053 1.079.025 1.484.235.414.198.805.548 1.172 1.05.248-.569.652-1.072 1.212-1.508.571-.437 1.175-.685 1.812-.743.659-.06 1.229.14 1.71.6.491.459.87 1.029 1.135 1.712.276.682.441 1.32.495 1.915.049.531.047 1.045-.004 1.543-.041.496-.22.759-.539.788zm5.789-.542a4.44 4.44 0 0 1-1.917-.228 3.35 3.35 0 0 1-1.473-1.007c-.384-.458-.605-1.005-.663-1.643-.065-.712.008-1.388.217-2.028.209-.651.551-1.186 1.027-1.604.486-.43 1.074-.676 1.765-.739.722-.066 1.29.118 1.705.552.413.423.641.986.683 1.689.057.627-.149 1.127-.618 1.502-.459.374-1.071.595-1.836.665a6.34 6.34 0 0 1-.528.016c-.387-.008-.663-.042-.829-.101s-.259-.201-.28-.424c-.006-.074.01-.129.05-.165.038-.046.121-.075.249-.087.138-.013.385-.003.741.029.346.033.652.037.917.013.978-.089 1.428-.558 1.351-1.408-.047-.51-.179-.905-.397-1.185-.208-.281-.545-.4-1.013-.358a2.38 2.38 0 0 0-1.333.539 2.73 2.73 0 0 0-.844 1.137 3.14 3.14 0 0 0-.193 1.415c.076.839.373 1.508.889 2.008.516.489 1.263.689 2.24.6l.587-.085c.115-.021.256-.066.421-.135l.357-.145c.442-.201.769-.311.982-.33.159-.014.285.017.378.094-.229.428-.601.762-1.114 1.001a4.7 4.7 0 0 1-1.521.411zm4.901-.381l-.249.087c-.085.008-.179-.027-.282-.103-.398-.489-.736-1.374-1.013-2.655l-.527-3.326c-.013-.149.086-.233.298-.252.319-.029.494.132.526.482.009.096.011.176.006.24.075-.232.235-.477.48-.734a3.72 3.72 0 0 1 .87-.674c.336-.191.685-.303 1.046-.336 1.137-.103 2.011.326 2.623 1.288.612.951.985 2.171 1.12 3.658.046.51.03.924-.048 1.241-.079.307-.209.469-.39.485-.191.017-.292-.032-.302-.149.023-.57.01-1.126-.039-1.667-.125-1.37-.458-2.384-1-3.042-.542-.668-1.207-.967-1.993-.895a2.37 2.37 0 0 0-1.089.388 2.39 2.39 0 0 0-.788.875 2.15 2.15 0 0 0-.213 1.192c.044.489.109.911.195 1.268l.374 1.283c.173.488.304.936.395 1.346zm8.904-.874l-.204.051c-.329.03-.58-.194-.752-.671-.161-.478-.282-1.158-.362-2.04l-.121-1.692-.064-1.055c-1.307.119-1.973.029-2-.268-.009-.096-.005-.171.011-.226.027-.056.088-.088.184-.097l1.727-.269-.235-1.698-.218-1.522c-.011-.117.03-.201.121-.252a.62.62 0 0 1 .296-.107c.127-.012.24.048.337.178a.71.71 0 0 1 .164.387l.376 2.906 1.329-.056c.2-.04.373-.018.52.065.157.082.251.234.282.456a2.32 2.32 0 0 1-.717.242c-.263.045-.709.097-1.335.153l.586 4.863.045.494.03.158z" fill-opacity=".61"/><path d="M324.059 285.047c-.082.079-.191.112-.33.101-.499-.041-1.259-.564-2.278-1.569a33.02 33.02 0 0 1-2.658-2.998l.183 1.476.096.779a2.85 2.85 0 0 1 .032.581c-.025.308-.152.485-.381.53-.064.134-.179-.224-.344-1.072l-.401-2.923c-.101-1.111-.121-2.033-.06-2.767.031-.372.088-.672.171-.901.147-.094.268-.138.364-.13.191.016.31.192.358.527.048.325.075.836.082 1.532l.001.37c.417.013.987-.031 1.713-.131.736-.1 1.397-.265 1.983-.495.598-.239.913-.555.946-.949.017-.212-.117-.459-.405-.74-.275-.29-.719-.552-1.331-.784-.602-.232-1.355-.385-2.258-.46l-.511-.042c-.605-.05-1.087.011-1.444.185-.356.163-.56.564-.613 1.202-.159-.013-.294-.126-.405-.339s-.16-.404-.146-.574c.055-.659.404-1.063 1.048-1.213.655-.15 1.577-.175 2.768-.076.627.052 1.272.207 1.936.465s1.211.625 1.643 1.099c.433.464.622 1.015.57 1.653-.036.436-.263.781-.68 1.035a4.38 4.38 0 0 1-1.411.558l-1.954.336-1.253.201c.727 1.173 1.443 2.1 2.146 2.779a21.7 21.7 0 0 0 2.254 1.872l.574.433c.11.094.162.179.156.253s-.06.14-.161.196zm4.585-.167a4.44 4.44 0 0 1-1.849-.554 3.34 3.34 0 0 1-1.277-1.246 2.89 2.89 0 0 1-.371-1.732c.059-.712.247-1.366.564-1.96.317-.605.747-1.073 1.288-1.403.552-.339 1.174-.481 1.865-.423.723.059 1.251.339 1.584.837.335.488.462 1.082.383 1.782-.052.627-.341 1.085-.868 1.373-.517.289-1.157.402-1.923.338-.117-.009-.291-.034-.523-.075-.38-.074-.646-.155-.799-.243s-.221-.243-.202-.466c.006-.074.032-.126.077-.154.046-.039.133-.053.26-.043.138.012.38.064.726.157.335.092.635.148.901.17.978.081 1.502-.303 1.572-1.154.042-.51-.02-.922-.187-1.235-.156-.313-.468-.489-.935-.527-.511-.043-.979.058-1.406.301a2.73 2.73 0 0 0-1.028.974 3.14 3.14 0 0 0-.433 1.361c-.07.84.107 1.55.53 2.131.423.57 1.124.896 2.102.977a8.92 8.92 0 0 0 .593.017 2.15 2.15 0 0 0 .438-.06l.376-.081c.471-.122.812-.174 1.025-.156.159.013.278.065.356.157-.299.382-.723.647-1.27.794-.536.138-1.059.186-1.569.143zm3.62-1.594c.158-.105.306-.152.445-.14.127.01.246.058.357.142a2.25 2.25 0 0 1 .359.318l.283.265c.229.211.552.388.968.529s.864.232 1.342.272c.542.045 1.034-.016 1.476-.183.454-.176.695-.44.724-.791.026-.319-.07-.578-.289-.778-.218-.211-.488-.373-.811-.485s-.751-.228-1.287-.347c-.727-.146-1.303-.301-1.728-.464-.415-.163-.738-.399-.969-.707-.231-.318-.324-.744-.28-1.275.047-.574.354-.977.919-1.208.566-.243 1.199-.335 1.901-.277.638.053 1.169.236 1.592.55.435.303.637.705.607 1.206-.003.289-.064.514-.185.675-.119.151-.253.22-.402.207-.085-.007-.157-.045-.215-.114-.048-.068-.068-.155-.059-.261.014-.171.088-.352.222-.544-.032-.26-.192-.465-.479-.618-.277-.151-.617-.243-1.021-.277-.595-.049-1.077.023-1.447.218-.368.183-.564.424-.589.721-.026.319.081.574.322.766s.539.339.894.443l1.563.322c.557.121 1.007.249 1.349.384a1.79 1.79 0 0 1 .858.698c.219.317.306.758.259 1.322-.048.584-.357 1.024-.928 1.319-.569.285-1.231.396-1.986.334-.967-.08-1.82-.317-2.558-.71-.727-.392-1.13-.896-1.207-1.512zm11.64 2.858c-.68-.057-1.296-.242-1.848-.555s-.978-.728-1.278-1.245-.423-1.095-.37-1.733c.058-.712.246-1.366.563-1.96.318-.605.747-1.073 1.288-1.403.553-.339 1.174-.48 1.865-.423.723.06 1.251.339 1.585.837.334.488.461 1.082.382 1.782-.052.627-.341 1.085-.868 1.373-.516.289-1.157.402-1.922.339a6.41 6.41 0 0 1-.524-.076c-.379-.074-.645-.155-.799-.243s-.22-.243-.202-.466c.006-.074.032-.126.077-.154.046-.039.133-.053.26-.043.139.012.38.064.726.157.335.092.635.149.901.171.978.081 1.502-.304 1.572-1.155.043-.51-.02-.922-.186-1.235-.156-.313-.468-.489-.936-.527-.51-.042-.979.058-1.406.301-.426.232-.768.557-1.028.974a3.14 3.14 0 0 0-.433 1.361c-.07.84.107 1.55.53 2.131.424.57 1.125.896 2.103.977.117.01.314.015.592.017.118-.001.264-.021.439-.06l.376-.081c.47-.122.811-.174 1.024-.156.159.013.278.065.356.158-.299.381-.722.646-1.27.793-.535.138-1.058.186-1.569.144zm7.483.619c-1.106-.092-2.052-.363-2.839-.813-.775-.46-1.123-1.179-1.042-2.157a1.86 1.86 0 0 1 .404-.994c.239-.312.575-.552 1.006-.72.432-.178.946-.243 1.541-.193.458.037.844.091 1.159.16s.673.216 1.071.442.805.564 1.217 1.015c-.11-.747-.312-1.411-.606-1.992s-.642-1.038-1.043-1.371c-.389-.343-.785-.531-1.189-.564-.191-.016-.375.006-.551.067a5.6 5.6 0 0 0-.614.238c-.28.148-.484.217-.611.206a.23.23 0 0 1-.14-.06c-.028-.045-.04-.094-.036-.147.035-.425.249-.739.64-.942.402-.203.873-.271 1.414-.205.74.105 1.394.48 1.962 1.126.568.636.991 1.404 1.27 2.305.289.901.399 1.772.33 2.612-.012.138-.039.334-.081.587l-.508-.074c-.336-.852-.809-1.474-1.418-1.867-.599-.403-1.217-.631-1.854-.684-.819-.067-1.414.007-1.785.222s-.576.557-.614 1.025c-.041.489.171.902.636 1.24s1.079.539 1.844.603c.425.035.767.042 1.026.02l.814-.141a4.62 4.62 0 0 1 .604-.111 3.75 3.75 0 0 1 .657.007c.298.024.482.061.553.11.082.049.116.148.104.297-.009.107-.238.221-.687.345s-.95.226-1.502.309-.93.116-1.132.099zm5.916.49c-.366-.887-.628-1.915-.789-3.084-.149-1.168-.189-2.172-.12-3.012.028-.33.12-.536.276-.62.09-.046.156-.067.198-.063.075.006.123.069.145.188.033.121.058.337.075.649l.032.58c.165-.564.425-.997.782-1.3.368-.312.797-.448 1.286-.407.542.045.937.185 1.186.419.249.224.353.575.314 1.054-.511-.299-.984-.467-1.42-.503-.414-.034-.78.048-1.096.246s-.55.511-.703.937a2.76 2.76 0 0 0-.214.834 2.9 2.9 0 0 0 .045.822 9.56 9.56 0 0 0 .307.941l.288.987a2.84 2.84 0 0 1 .088.874c-.015.181-.09.308-.224.383-.134.064-.286.089-.456.075zm7.454.633c-1.243-.103-2.188-.465-2.832-1.086-.633-.63-.9-1.541-.801-2.731.05-.606.246-1.168.588-1.685a3.68 3.68 0 0 1 1.338-1.222c.549-.297 1.121-.421 1.716-.372.606.05 1.111.226 1.514.527.404.29.586.68.545 1.169-.028.34-.112.579-.252.717-.128.129-.267.187-.415.175.042-.511-.062-.937-.312-1.278s-.63-.534-1.14-.576-.963.059-1.358.305c-.394.235-.711.567-.95.997a3.38 3.38 0 0 0-.4 1.347c-.084 1.01.2 1.724.85 2.142.661.418 1.555.674 2.682.768l1.504.06a.43.43 0 0 1 .138.076c.071.048.128.08.169.094l-.008.095c-.025.309-.312.478-.86.507s-1.12.02-1.716-.029zm4.921.359c-.054.006-.096-.201-.126-.621l-.046-2.155-.133-4.603c-.066-1.396-.196-2.611-.389-3.644-.014-.087.024-.159.114-.215s.21-.079.359-.067a.77.77 0 0 1 .174.03c.206.745.339 1.399.4 1.96.071.563.121 1.252.15 2.068l.028.628c.67-.33 1.27-.473 1.802-.429.967.08 1.616.578 1.947 1.494.343.906.447 2.167.313 3.783a9.36 9.36 0 0 1-.24 1.553c-.109.408-.217.608-.323.599-.138-.011-.284-.125-.437-.341l.043-.526.16-1.737.07-1.23c.036-.832-.082-1.473-.355-1.924-.263-.45-.761-.705-1.494-.766-.489-.04-.961.103-1.416.429l-.055 1.248.04 1.255.036 1.512c.007.429-.011.904-.054 1.425-.074.122-.155.201-.244.236-.078.037-.186.049-.324.038z" fill-opacity=".61"/></g><defs><path id="B" d="M448.235 454.44s-19.54-7.204-23.358 7.205c0 0 3.487 15.868 1.398 24.547s-12.611 25.254-13.258 28.397c-1.277 6.167-.315 6.588-.315 6.588s7.65 4.422 17.932-.315 28.078-25.134 30.859-29.33-8.718-20.742-8.718-20.742l-4.54-16.35z"/><path id="C" d="M326.588 201.452l32.947 2.833a2.82 2.82 0 0 1 1.92.996 2.83 2.83 0 0 1 .654 2.063l-2.02 23.528-38.578-3.316 2.02-23.528c.064-.747.422-1.439.996-1.921s1.315-.719 2.061-.655z"/><path id="D" d="M499.822 475.019s-8.327-5.941-25.553-4.753c0 0-1.262 20.682-3.607 26.698s-14.7 16.44-17 18.23-2.3 8.032-2.3 8.032H503.7a166.95 166.95 0 0 0-4.163-26.562l.285-21.645z"/><path id="E" d="M513.169 263.574s-33.384 6.542-66.137-4.077c-7.457-2.378-14.592-5.672-21.239-9.806 0 0 .09-2.106.15-5.55.271-13.447.196-47.274-6.884-55.652-4.509-5.28-8.041-37.919.662-54.419l26.62-21.418c36.856 7.205 44.642 16.966 50.73 38.024 1.127 3.85 2.179 8.077 3.352 12.739 1.277 5.084 2.48 11.296 3.622 18.05 5.531 33.631 9.124 82.109 9.124 82.109z"/><path id="F" d="M443.681 93.263c3.668-16.049 1.909-39.949-20.563-37.828-15.752 1.504-26.98 10.228-22.546 31.376 1.849 8.919 3.367 21.554 11.544 32.955 2.269 3.158 26.018-8.017 24.576-17.057"/><path id="G" d="M463.192 173.312c-3.397 3.339.3 45.244.3 45.244s-19.735 7.731-25.913 12.709-35.443 16.41-35.443 16.41-4.51 15.372 1.112 15.899 63.837-19.328 77.154-26.292c0 0 8.673-51.14 8.613-64.15"/><path id="H" d="M404.449 246.755c-2.706-.511-7.516-2.286-10.041-1.7s-7.14 3.37-11.889 4.513-2.781 3.008 0 3.565c2.035.339 4.112.339 6.147 0l-3.863 3.775c-2.212 1.198-4.496 2.258-6.839 3.173-1.398 0-6.343 1.339-6.012 3.445s3.171 1.865 6.343 1.985c0 0-5.051 1.008-4.509 3.881.33 1.97 6.012.195 8.913.195 0 0-2.375 2.587-.601 3.385s5.712-1.189 5.712-1.189-.151 2.136 1.623 2.347 6.238-1.504 9.274-3.339a82.41 82.41 0 0 0 8.568-6.348c1.149-1.051 2.465-1.905 3.893-2.527"/><path id="I" d="M461.928 129.858c-10.236 23.178 0 55.336 0 55.336s24.771 8.423 27.056 4.798 6.463-21.403 7.17-29.616"/><path id="J" d="M184.637 233.008l6.012 12.754s24.862 51.411 40.088 110.281c.361 1.399 8.237 29.285 1.924 98.73l3.608 12.183-3.938 20.125s5.922 8.558 5.711 11.356c0 0-14.61 2.722-19.54 5.339-3.788 2.046-15.166 13.281-15.166 13.281-3.232-.661-3.518-13.717-3.518-13.717l-8.688-120.915c-1.939-4.993-13.783-26.532-32.272-75.822 0 0-.42 68.843-5.351 86.261-4.404 15.492.812 58.855.812 58.855l-3.006 48.267s10.401 10.814 1.969 13.717c0 0-5.637-10.844-21.69-13.311-8.162-1.263-18.323 13.236-18.323 13.236-3.577-1.143 1.503-19.358 1.503-19.358-11.378-85.914-3.006-70.362-5.261-112.356-1.503-26.954-9.093-142.258-.135-151.629l75.261 2.723z"/><path id="K" d="M137.875 73.123c-2.911-8.157-3.366-16.991-1.308-25.404 2.495-10.529 15.031-25.013 34.046-11.852 9.785 6.784 10.386 21.509 7.335 34.985-.722 3.219-.181 6.362-1.248 9.326-3.758 10.378-10.627 18.365-14.385 18.546-6.268.316-18.803-7.28-18.292-13.898"/><path id="L" d="M140.474 71.361s-1.503-5.64-6.569-7.129-1.593 12.033 2.721 13.793 5.396 3.008 5.651 1.399"/><path id="M" d="M200.839 88.283c.316-.978 6.013-10.995 7.621-13.537s8.793-4.843 11.574-6.377 3.006-3.865 4.509-2.196 0 5.475-8.327 9.521c2.959.164 5.925.164 8.884 0 2.224-.331 4.208-2.346 5.2-.948s1.188 3.911-3.773 5.445c-2.358.856-4.83 1.362-7.335 1.504a51.47 51.47 0 0 1 7.14 2.076c.797.587 1.984 1.955 3.172 2.166s2.48 1.504.3 3.008c-.773.428-1.638.659-2.521.675s-1.757-.185-2.544-.585c0 0 5.757 2.783 3.968 4.512s-7.516 1.384-7.516 1.384-8.492 10.363-15.677 8.197"/><path id="N" d="M192.377 307.58c3.623 3.264 6.223 3.264 6.178 4.437-.135 3.655-4.51 5.475-4.51 5.475"/><path id="O" d="M148.547 348.176c5.794-3.217 12.607-4.068 19.014-2.377 11.003 2.783 39.532 43.619 43.5 47.605s11.394 6.017 18.233 13.221c10.822 11.296 26.56 21.283 28.153 21.283s2.871-.992 4.855-1.383 17.346-1.79 17.346-1.79 5.156 1.158 0 3.354-4.765 4.196-4.765 4.196-1.022 1.655 1.037 3.249 3.292.722 6.253 4.918-4.178 1.82-4.178 1.82 1.578 4.513-1.594 4.062-.391 4.407-5.546 3.745-16.189-7.626-18.954-14.921c0 0-45.004-21.524-51.738-27.074s-35.052-35.316-37.051-35.707"/><path id="P" d="M142.083 343.816s22.186-5.942 29.927-1.58 22.411 24.592 22.411 24.592-17.887 16.019-23.418 14.56-22.457-3.85-22.457-3.85"/></defs></svg>